<!--?xml version="1.0" standalone="no"?-->
              <svg id="sw-js-blob-svg" viewBox="0 0 100 100" xmlns="http://www.w3.org/2000/svg" version="1.1">
                    <defs> 
                        <linearGradient id="sw-gradient" x1="0" x2="1" y1="1" y2="0">
                            <stop id="stop1" stop-color="rgba(254, 250, 224, 1)" offset="0%"></stop>
                            <stop id="stop2" stop-color="rgba(254, 250, 224, 1)" offset="100%"></stop>
                        </linearGradient>
                    </defs>
                <path fill="url(#sw-gradient)" d="M22.2,-30.7C29.3,-25.4,35.9,-19.6,38.5,-12.3C41.2,-5,40,3.8,36.6,11.3C33.3,18.8,28,24.9,21.5,31C15.1,37.2,7.5,43.2,-1.1,44.7C-9.7,46.2,-19.4,43.1,-27,37.4C-34.6,31.6,-40,23.2,-42.2,14.3C-44.3,5.3,-43.1,-4.1,-39.5,-12.2C-36,-20.2,-30.1,-26.7,-23.1,-32.1C-16.1,-37.4,-8.1,-41.5,-0.3,-41.2C7.6,-40.8,15.1,-36,22.2,-30.7Z" width="100%" height="100%" transform="translate(50 50)" stroke-width="0" style="transition: all 0.3s;" stroke="url(#sw-gradient)"></path>
              </svg>